<?xml version="1.0" standalone="no"?>
<!DOCTYPE svg PUBLIC "-//W3C//DTD SVG 20010904//EN"
 "http://www.w3.org/TR/2001/REC-SVG-20010904/DTD/svg10.dtd">
<svg version="1.0" xmlns="http://www.w3.org/2000/svg"
 width="644.000000pt" height="382.000000pt" viewBox="0 0 644.000000 382.000000"
 preserveAspectRatio="xMidYMid meet">
<metadata>
Created by potrace 1.16, written by Peter Selinger 2001-2019
</metadata>
<g transform="translate(0.000000,382.000000) scale(0.100000,-0.100000)"
fill="#000000" stroke="none">
<path d="M0 1910 l0 -1910 3220 0 3220 0 0 1910 0 1910 -3220 0 -3220 0 0
-1910z m2110 1441 l0 -89 -55 -1 c-43 0 -60 4 -75 19 -42 42 -10 110 50 110
25 0 30 4 30 25 0 20 5 25 25 25 25 0 25 -1 25 -89z m-346 24 c44 -44 18 -108
-47 -113 -66 -6 -102 63 -57 108 24 24 82 27 104 5z m2402 -412 c72 -24 167
-121 188 -193 20 -68 20 -153 0 -212 l-15 -46 34 -49 c88 -123 136 -261 145
-413 l5 -105 71 -34 c137 -66 252 -216 286 -373 19 -85 8 -238 -23 -320 -55
-150 -136 -246 -256 -306 l-75 -37 -1123 -3 c-1247 -3 -1192 -5 -1322 63 -135
72 -244 212 -280 360 -17 67 -15 207 4 279 55 208 232 369 447 406 64 11 64
11 75 53 31 114 109 232 198 297 126 93 251 122 456 107 21 -2 37 11 83 67
157 192 397 306 642 306 60 0 62 1 89 40 77 111 234 160 371 113z"/>
<path d="M3977 2906 c-154 -57 -218 -211 -147 -353 33 -66 70 -100 138 -126
145 -58 316 47 338 206 14 98 -49 212 -140 259 -51 26 -139 33 -189 14z m97
-122 c3 -9 6 -33 6 -54 l0 -39 53 -3 c44 -3 52 -6 52 -23 0 -17 -8 -20 -52
-23 l-53 -3 0 -48 c0 -28 -6 -53 -13 -60 -22 -17 -37 8 -37 61 l0 48 -50 0
c-37 0 -52 4 -57 16 -8 22 14 34 65 34 l42 0 0 48 c0 27 3 52 7 55 11 12 31 7
37 -9z"/>
<path d="M3574 2715 c-197 -35 -379 -155 -488 -319 -37 -56 -39 -58 -75 -52
-90 15 -213 18 -259 6 -125 -34 -247 -129 -305 -237 -15 -28 -36 -84 -45 -125
l-18 -73 -88 -12 c-251 -36 -426 -230 -426 -472 0 -224 150 -416 363 -466 59
-14 200 -15 1169 -13 l1103 3 57 28 c182 89 290 345 234 553 -37 141 -147 268
-279 323 l-72 30 -6 118 c-8 158 -38 261 -114 378 l-35 55 -49 -33 c-123 -85
-292 -75 -404 22 -59 52 -90 124 -95 218 l-5 83 -46 -1 c-25 0 -78 -7 -117
-14z"/>
</g>
</svg>
